<svg  viewBox="0 0 113 52" fill="none" xmlns="http://www.w3.org/2000/svg">
<mask id="path-1-outside-1_1_3" maskUnits="userSpaceOnUse" x="0" y="0" width="113" height="52" fill="black">
<rect fill="white" width="113" height="52"/>
<path d="M1.584 51.272C0.773333 51.272 0.368 50.9093 0.368 50.184C0.368 45.1493 3.312 37.2987 9.2 26.632C9.62667 25.864 10.288 24.7333 11.184 23.24C9.73333 23.4107 8.51733 23.7307 7.536 24.2C6.59733 24.6267 5.97867 24.84 5.68 24.84C4.912 24.84 4.528 24.4773 4.528 23.752C4.528 22.6427 7.17333 21.6827 12.464 20.872C13.1893 19.6347 14.1067 18.0987 15.216 16.264C16.368 14.4293 17.7333 12.2747 19.312 9.8C20.464 7.96533 21.4453 6.36533 22.256 5C23.0667 3.592 23.728 2.312 24.24 1.16C24.4107 0.73333 24.688 0.519997 25.072 0.519997C25.8827 0.519997 26.288 0.946664 26.288 1.8C26.288 2.09866 25.776 3.10133 24.752 4.808C23.7707 6.472 22.2133 9.032 20.08 12.488L15.024 20.616C16.6453 20.4453 18.352 20.3173 20.144 20.232C21.936 20.1467 23.7707 20.104 25.648 20.104C29.4027 20.104 36.2933 20.424 46.32 21.064C47.1733 19.2293 48.0693 17.4373 49.008 15.688C49.9893 13.896 51.0133 12.1253 52.08 10.376C53.616 7.77333 54.96 5.74666 56.112 4.296C57.264 2.80267 58.1173 1.84267 58.672 1.416C59.2267 0.98933 59.6747 0.775997 60.016 0.775997C60.656 0.775997 60.976 1.11733 60.976 1.8C60.976 2.14133 60.784 2.44 60.4 2.696C59.632 3.25067 58.6933 4.25333 57.584 5.704C56.4747 7.15466 55.2373 9.05333 53.872 11.4C51.824 14.856 50.0747 18.1413 48.624 21.256C50.1173 21.256 50.864 21.6187 50.864 22.344C50.864 22.6427 50.7573 22.8987 50.544 23.112C50.3307 23.3253 50.0107 23.4107 49.584 23.368L47.664 23.24C43.3547 32.84 41.2 39.4107 41.2 42.952V44.36C41.2 44.872 40.8373 45.128 40.112 45.128C39.4293 45.128 39.088 44.3813 39.088 42.888C39.088 39.1333 41.1787 32.52 45.36 23.048C40.1547 22.7493 35.8667 22.536 32.496 22.408C29.168 22.28 26.7573 22.216 25.264 22.216C21.0827 22.216 17.264 22.408 13.808 22.792L11.056 27.592C8.96533 31.304 7.32267 34.632 6.128 37.576C4.93333 40.4773 4.12267 42.6533 3.696 44.104C3.26933 45.768 2.992 47.048 2.864 47.944C2.736 48.84 2.62933 49.672 2.544 50.44C2.50133 50.9947 2.18133 51.272 1.584 51.272ZM78.5875 19.784C77.8622 19.784 77.4995 19.4213 77.4995 18.696C77.4995 18.4827 77.6488 18.0987 77.9475 17.544C78.2462 16.9467 78.5875 16.3493 78.9715 15.752C79.3555 15.1547 79.6542 14.7493 79.8675 14.536C80.5928 13.7253 81.1475 13.2133 81.5315 13C81.9582 12.7867 82.3422 12.68 82.6835 12.68C83.5795 12.68 84.0275 13.0853 84.0275 13.896C84.0275 14.1947 83.8355 14.5573 83.4515 14.984C83.1102 15.368 82.7048 15.7307 82.2355 16.072C81.5528 16.4987 81.1262 16.84 80.9555 17.096L79.5475 19.08C79.5048 19.2507 79.3982 19.4213 79.2275 19.592C79.0995 19.72 78.8862 19.784 78.5875 19.784ZM67.7075 45.704C66.5128 45.704 65.6382 45.4693 65.0835 45C64.5715 44.5307 64.3155 43.8267 64.3155 42.888C64.3155 41.992 64.5928 40.776 65.1475 39.24C65.7022 37.6613 66.4062 35.976 67.2595 34.184C68.1555 32.392 69.0942 30.6853 70.0755 29.064C71.0568 27.4427 71.9955 26.12 72.8915 25.096C73.8302 24.0293 74.5768 23.496 75.1315 23.496C75.8995 23.496 76.2835 23.8373 76.2835 24.52C76.2835 24.9467 75.9208 25.7573 75.1955 26.952C74.4702 28.1467 73.6808 29.384 72.8275 30.664C72.4862 31.1333 72.0168 31.7733 71.4195 32.584C70.8222 33.3947 70.2462 34.1627 69.6915 34.888C69.1368 35.5707 68.7742 36.04 68.6035 36.296C68.1768 36.936 67.7288 37.9813 67.2595 39.432C66.7475 40.8827 66.4915 41.992 66.4915 42.76C66.4915 43.1013 66.5555 43.3573 66.6835 43.528C66.8542 43.6987 67.2168 43.784 67.7715 43.784C68.8382 43.784 70.0328 43.4427 71.3555 42.76C72.6782 42.0773 74.0222 41.224 75.3875 40.2C76.7528 39.1333 78.0328 38.0453 79.2275 36.936C80.4648 35.8267 81.5102 34.8667 82.3635 34.056C82.5342 33.8853 82.7902 33.8 83.1315 33.8C83.7715 33.8 84.0915 34.056 84.0915 34.568C84.0915 35.0373 83.7928 35.5707 83.1955 36.168C82.0435 37.32 80.9768 38.344 79.9955 39.24C79.0142 40.136 78.0755 40.9253 77.1795 41.608C75.7715 42.632 74.2142 43.5707 72.5075 44.424C70.8008 45.2773 69.2008 45.704 67.7075 45.704ZM97.1565 36.424C96.4738 36.424 96.1325 36.0827 96.1325 35.4C96.1325 34.2907 97.2205 32.0507 99.3965 28.68L103.812 22.152L107.46 16.904C108.271 15.6667 108.911 14.6 109.38 13.704C109.85 12.7653 110.127 11.9973 110.212 11.4L110.469 9.736C110.682 9.01067 111.023 8.648 111.493 8.648C112.218 8.648 112.58 9.032 112.58 9.8C112.58 11.208 111.642 13.5333 109.764 16.776C109.551 17.16 109.146 17.8 108.549 18.696C107.994 19.592 107.098 20.9573 105.86 22.792C104.623 24.584 102.916 27.08 100.74 30.28C100.527 30.5787 100.271 30.9627 99.9725 31.432C99.7165 31.9013 99.4178 32.4347 99.0765 33.032C98.9058 33.416 98.7565 33.8 98.6285 34.184C98.5005 34.568 98.3725 34.9307 98.2445 35.272C98.0738 36.04 97.7112 36.424 97.1565 36.424ZM94.9165 45.512C93.8072 45.512 93.2525 44.9787 93.2525 43.912C93.2525 42.76 93.7858 42.184 94.8525 42.184C95.9618 42.184 96.5165 42.7173 96.5165 43.784C96.5165 44.936 95.9832 45.512 94.9165 45.512Z"/>
</mask>
<path d="M9.2 26.632L9.11258 26.5834L9.11245 26.5837L9.2 26.632ZM11.184 23.24L11.2698 23.2914L11.3745 23.1169L11.1723 23.1407L11.184 23.24ZM7.536 24.2L7.57739 24.2911L7.57915 24.2902L7.536 24.2ZM12.464 20.872L12.4791 20.9708L12.5262 20.9636L12.5503 20.9226L12.464 20.872ZM15.216 16.264L15.1313 16.2108L15.1304 16.2123L15.216 16.264ZM19.312 9.8L19.3963 9.85378L19.3967 9.85318L19.312 9.8ZM22.256 5L22.342 5.05106L22.3427 5.0499L22.256 5ZM24.24 1.16L24.3314 1.20064L24.3328 1.19714L24.24 1.16ZM24.752 4.808L24.6662 4.75655L24.6659 4.7572L24.752 4.808ZM20.08 12.488L20.1649 12.5408L20.1651 12.5405L20.08 12.488ZM15.024 20.616L14.9391 20.5632L14.831 20.7369L15.0345 20.7154L15.024 20.616ZM46.32 21.064L46.3136 21.1638L46.3818 21.1682L46.4107 21.1062L46.32 21.064ZM49.008 15.688L48.9203 15.64L48.9199 15.6407L49.008 15.688ZM52.08 10.376L52.1654 10.4281L52.1661 10.4268L52.08 10.376ZM56.112 4.296L56.1903 4.35819L56.1912 4.35708L56.112 4.296ZM58.672 1.416L58.611 1.33673L58.611 1.33673L58.672 1.416ZM60.4 2.696L60.3445 2.61274L60.3415 2.61493L60.4 2.696ZM57.584 5.704L57.6634 5.76474L57.6634 5.76474L57.584 5.704ZM53.872 11.4L53.958 11.451L53.9584 11.4503L53.872 11.4ZM48.624 21.256L48.5334 21.2138L48.4671 21.356H48.624V21.256ZM49.584 23.368L49.594 23.2684L49.5907 23.2682L49.584 23.368ZM47.664 23.24L47.6707 23.1402L47.6013 23.1356L47.5728 23.199L47.664 23.24ZM45.36 23.048L45.4515 23.0884L45.5097 22.9564L45.3657 22.9482L45.36 23.048ZM32.496 22.408L32.4922 22.5079L32.4922 22.5079L32.496 22.408ZM13.808 22.792L13.797 22.6926L13.7465 22.6982L13.7212 22.7423L13.808 22.792ZM11.056 27.592L10.9692 27.5423L10.9689 27.5429L11.056 27.592ZM6.128 37.576L6.22047 37.6141L6.22066 37.6136L6.128 37.576ZM3.696 44.104L3.6 44.0758L3.59913 44.0792L3.696 44.104ZM2.864 47.944L2.963 47.9581L2.963 47.9581L2.864 47.944ZM2.544 50.44L2.44455 50.429L2.44429 50.4323L2.544 50.44ZM1.584 51.172C1.19151 51.172 0.915814 51.084 0.73868 50.9255C0.563662 50.7689 0.468 50.5282 0.468 50.184H0.268C0.268 50.5651 0.375005 50.8685 0.605321 51.0745C0.833519 51.2787 1.16583 51.372 1.584 51.372V51.172ZM0.468 50.184C0.468 47.684 1.19942 44.4757 2.66963 40.5551C4.13935 36.6359 6.34494 32.0111 9.28755 26.6803L9.11245 26.5837C6.16706 31.9195 3.95665 36.5535 2.48237 40.4849C1.00858 44.415 0.268 47.6493 0.268 50.184H0.468ZM9.28742 26.6806C9.71325 25.9141 10.3739 24.7846 11.2698 23.2914L11.0983 23.1886C10.2021 24.6821 9.54009 25.8139 9.11259 26.5834L9.28742 26.6806ZM11.1723 23.1407C9.71423 23.3122 8.48685 23.6344 7.49285 24.1098L7.57915 24.2902C8.54782 23.8269 9.75244 23.5091 11.1957 23.3393L11.1723 23.1407ZM7.49462 24.109C7.02673 24.3216 6.64057 24.4802 6.3354 24.5855C6.02709 24.6918 5.81137 24.74 5.68 24.74V24.94C5.84729 24.94 6.09024 24.8816 6.4006 24.7745C6.7141 24.6664 7.10661 24.505 7.57738 24.291L7.49462 24.109ZM5.68 24.74C5.31004 24.74 5.05115 24.6525 4.88466 24.4953C4.71924 24.3391 4.628 24.0977 4.628 23.752H4.428C4.428 24.1316 4.52876 24.4343 4.74734 24.6407C4.96485 24.8461 5.28197 24.94 5.68 24.94V24.74ZM4.628 23.752C4.628 23.5186 4.76642 23.2765 5.08561 23.0268C5.40424 22.7775 5.88895 22.5325 6.54611 22.294C7.85938 21.8174 9.8356 21.3759 12.4791 20.9708L12.4489 20.7732C9.80173 21.1788 7.80995 21.6226 6.47789 22.106C5.81238 22.3475 5.30509 22.6012 4.96239 22.8692C4.62025 23.1369 4.428 23.4307 4.428 23.752H4.628ZM12.5503 20.9226C13.2753 19.6858 14.1924 18.1502 15.3016 16.3157L15.1304 16.2123C14.021 18.0471 13.1034 19.5836 12.3777 20.8214L12.5503 20.9226ZM15.3007 16.3172C16.4525 14.4828 17.8177 12.3283 19.3963 9.85378L19.2277 9.74622C17.6489 12.221 16.2835 14.3759 15.1313 16.2108L15.3007 16.3172ZM19.3967 9.85318C20.549 8.01804 21.5308 6.4173 22.342 5.05105L22.17 4.94895C21.3599 6.31336 20.379 7.91262 19.2273 9.74682L19.3967 9.85318ZM22.3427 5.0499C23.1546 3.63969 23.8176 2.35654 24.3314 1.20061L24.1486 1.11938C23.6384 2.26746 22.9787 3.5443 22.1693 4.9501L22.3427 5.0499ZM24.3328 1.19714C24.4136 0.995366 24.5163 0.852082 24.637 0.759259C24.7564 0.667365 24.8998 0.619997 25.072 0.619997V0.419997C24.8602 0.419997 24.6729 0.479295 24.515 0.600734C24.3584 0.721244 24.2371 0.897959 24.1472 1.12286L24.3328 1.19714ZM25.072 0.619997C25.4606 0.619997 25.734 0.721999 25.9115 0.908872C26.0899 1.09671 26.188 1.3875 26.188 1.8H26.388C26.388 1.35916 26.2834 1.00996 26.0565 0.771122C25.8287 0.531329 25.4941 0.419997 25.072 0.419997V0.619997ZM26.188 1.8C26.188 1.8539 26.1629 1.95687 26.0989 2.11939C26.0366 2.27779 25.9422 2.48123 25.8149 2.73052C25.5605 3.22886 25.1778 3.90393 24.6663 4.75655L24.8378 4.85945C25.3502 4.0054 25.7355 3.32581 25.9931 2.82148C26.1218 2.56943 26.2194 2.35954 26.2851 2.19261C26.3491 2.02979 26.388 1.89543 26.388 1.8H26.188ZM24.6659 4.7572C23.6851 6.42028 22.1282 8.97956 19.9949 12.4355L20.1651 12.5405C22.2985 9.08443 23.8563 6.52371 24.8381 4.8588L24.6659 4.7572ZM19.9951 12.4352L14.9391 20.5632L15.1089 20.6688L20.1649 12.5408L19.9951 12.4352ZM15.0345 20.7154C16.6537 20.545 18.3585 20.4171 20.1488 20.3319L20.1392 20.1321C18.3455 20.2175 16.6369 20.3457 15.0135 20.5165L15.0345 20.7154ZM20.1488 20.3319C21.9391 20.2466 23.7722 20.204 25.648 20.204V20.004C23.7692 20.004 21.9329 20.0467 20.1392 20.1321L20.1488 20.3319ZM25.648 20.204C29.399 20.204 36.2867 20.5238 46.3136 21.1638L46.3264 20.9642C36.3 20.3242 29.4063 20.004 25.648 20.004V20.204ZM46.4107 21.1062C47.2632 19.2732 48.1584 17.4829 49.0961 15.7353L48.9199 15.6407C47.9803 17.3918 47.0835 19.1855 46.2293 21.0218L46.4107 21.1062ZM49.0957 15.736C50.0763 13.9454 51.0995 12.1761 52.1654 10.4281L51.9946 10.3239C50.9272 12.0746 49.9024 13.8466 48.9203 15.64L49.0957 15.736ZM52.1661 10.4268C53.701 7.82598 55.0424 5.80372 56.1903 4.35819L56.0337 4.23381C54.8776 5.68961 53.531 7.72068 51.9939 10.3252L52.1661 10.4268ZM56.1912 4.35708C57.3439 2.86279 58.19 1.91292 58.733 1.49526L58.611 1.33673C58.0447 1.77241 57.1841 2.74254 56.0328 4.23492L56.1912 4.35708ZM58.733 1.49526C59.2854 1.07034 59.7103 0.875997 60.016 0.875997V0.675997C59.639 0.675997 59.168 0.908322 58.611 1.33673L58.733 1.49526ZM60.016 0.875997C60.3189 0.875997 60.5281 0.956457 60.663 1.10039C60.7991 1.24554 60.876 1.47253 60.876 1.8H61.076C61.076 1.4448 60.9929 1.15979 60.809 0.963604C60.6239 0.766205 60.3531 0.675997 60.016 0.675997V0.875997ZM60.876 1.8C60.876 2.09672 60.7115 2.36814 60.3445 2.61279L60.4555 2.7792C60.8565 2.51186 61.076 2.18594 61.076 1.8H60.876ZM60.3415 2.61493C59.5612 3.17841 58.6154 4.19061 57.5046 5.64325L57.6634 5.76474C58.7713 4.31605 59.7028 3.32292 60.4586 2.77707L60.3415 2.61493ZM57.5046 5.64325C56.3918 7.09844 55.1521 9.00098 53.7856 11.3497L53.9584 11.4503C55.3226 9.10568 56.5576 7.21089 57.6634 5.76474L57.5046 5.64325ZM53.786 11.349C51.7366 14.8074 49.9856 18.0957 48.5334 21.2138L48.7147 21.2982C50.1637 18.187 51.9114 14.9046 53.958 11.451L53.786 11.349ZM48.624 21.356C49.3658 21.356 49.9075 21.4466 50.2603 21.6179C50.4353 21.703 50.5603 21.8061 50.6416 21.9246C50.7223 22.0423 50.764 22.1808 50.764 22.344H50.964C50.964 22.1446 50.9123 21.9657 50.8065 21.8114C50.7011 21.6579 50.546 21.5344 50.3477 21.438C49.9538 21.2467 49.3756 21.156 48.624 21.156V21.356ZM50.764 22.344C50.764 22.6158 50.6681 22.8465 50.4733 23.0413L50.6147 23.1827C50.8466 22.9508 50.964 22.6695 50.964 22.344H50.764ZM50.4733 23.0413C50.289 23.2256 50.0039 23.3095 49.594 23.2685L49.5741 23.4675C50.0175 23.5118 50.3723 23.4251 50.6147 23.1827L50.4733 23.0413ZM49.5907 23.2682L47.6707 23.1402L47.6573 23.3398L49.5774 23.4678L49.5907 23.2682ZM47.5728 23.199C45.4173 28.0008 43.7998 32.0469 42.721 35.3368C41.6429 38.6246 41.1 41.1649 41.1 42.952H41.3C41.3 41.1977 41.8345 38.6821 42.911 35.3992C43.9869 32.1184 45.6013 28.0792 47.7552 23.281L47.5728 23.199ZM41.1 42.952V44.36H41.3V42.952H41.1ZM41.1 44.36C41.1 44.5892 41.0208 44.7481 40.8703 44.8543C40.7135 44.965 40.466 45.028 40.112 45.028V45.228C40.4834 45.228 40.7798 45.163 40.9857 45.0177C41.1979 44.8679 41.3 44.6428 41.3 44.36H41.1ZM40.112 45.028C39.9608 45.028 39.8325 44.9871 39.7229 44.9072C39.6123 44.8265 39.5152 44.702 39.4349 44.5264C39.2733 44.1728 39.188 43.6302 39.188 42.888H38.988C38.988 43.6391 39.0734 44.2165 39.2531 44.6096C39.3435 44.8074 39.4597 44.9628 39.6051 45.0688C39.7515 45.1756 39.9219 45.228 40.112 45.228V45.028ZM39.188 42.888C39.188 41.0262 39.707 38.4458 40.7514 35.1421C41.7952 31.8402 43.3616 27.8225 45.4515 23.0884L45.2685 23.0076C43.177 27.7455 41.6075 31.7705 40.5607 35.0819C39.5144 38.3915 38.988 40.9952 38.988 42.888H39.188ZM45.3657 22.9482C40.1601 22.6495 35.8714 22.4361 32.4998 22.3081L32.4922 22.5079C35.862 22.6359 40.1493 22.8492 45.3543 23.1478L45.3657 22.9482ZM32.4998 22.3081C29.1717 22.1801 26.7594 22.116 25.264 22.116V22.316C26.7553 22.316 29.1643 22.3799 32.4922 22.5079L32.4998 22.3081ZM25.264 22.116C21.0797 22.116 17.2573 22.3081 13.797 22.6926L13.819 22.8914C17.2707 22.5079 21.0856 22.316 25.264 22.316V22.116ZM13.7212 22.7423L10.9692 27.5423L11.1428 27.6417L13.8948 22.8417L13.7212 22.7423ZM10.9689 27.5429C8.87677 31.2575 7.23204 34.5894 6.03534 37.5384L6.22066 37.6136C7.4133 34.6746 9.0539 31.3505 11.1431 27.6411L10.9689 27.5429ZM6.03553 37.5379C4.84063 40.4398 4.02828 42.6198 3.60006 44.0758L3.79194 44.1322C4.21705 42.6868 5.02604 40.5148 6.22047 37.6141L6.03553 37.5379ZM3.59913 44.0792C3.17221 45.7442 2.89379 47.0284 2.76501 47.9299L2.963 47.9581C3.09021 47.0676 3.36646 45.7918 3.79287 44.1288L3.59913 44.0792ZM2.76501 47.9299C2.63688 48.8267 2.53008 49.6598 2.44461 50.429L2.64339 50.451C2.72859 49.6842 2.83512 48.8533 2.963 47.9581L2.76501 47.9299ZM2.44429 50.4323C2.42432 50.6919 2.34096 50.8719 2.20651 50.9884C2.07093 51.1059 1.8684 51.172 1.584 51.172V51.372C1.89693 51.372 2.15307 51.2994 2.33749 51.1396C2.52304 50.9788 2.62101 50.7427 2.64371 50.4477L2.44429 50.4323ZM77.9475 17.544L78.0356 17.5914L78.0369 17.5887L77.9475 17.544ZM79.8675 14.536L79.9383 14.6068L79.942 14.6027L79.8675 14.536ZM81.5315 13L81.4867 12.9105L81.4829 12.9126L81.5315 13ZM83.4515 14.984L83.3772 14.9171L83.3768 14.9176L83.4515 14.984ZM82.2355 16.072L82.2886 16.157L82.2943 16.1529L82.2355 16.072ZM80.9555 17.096L81.0371 17.1539L81.0387 17.1515L80.9555 17.096ZM79.5475 19.08L79.4659 19.0221L79.4551 19.0375L79.4505 19.0557L79.5475 19.08ZM79.2275 19.592L79.2982 19.6627L79.2982 19.6627L79.2275 19.592ZM65.0835 45L65.0159 45.0738L65.0189 45.0763L65.0835 45ZM65.1475 39.24L65.2416 39.274L65.2418 39.2731L65.1475 39.24ZM67.2595 34.184L67.17 34.1393L67.1692 34.141L67.2595 34.184ZM70.0755 29.064L69.9899 29.0122L69.9899 29.0122L70.0755 29.064ZM72.8915 25.096L72.8164 25.0299L72.8162 25.0301L72.8915 25.096ZM75.1955 26.952L75.281 27.0039L75.281 27.0039L75.1955 26.952ZM72.8275 30.664L72.9084 30.7229L72.9107 30.7195L72.8275 30.664ZM71.4195 32.584L71.5 32.6433L71.5 32.6433L71.4195 32.584ZM69.6915 34.888L69.7691 34.9511L69.7709 34.9487L69.6915 34.888ZM68.6035 36.296L68.5203 36.2405L68.5203 36.2405L68.6035 36.296ZM67.2595 39.432L67.3538 39.4653L67.3546 39.4628L67.2595 39.432ZM66.6835 43.528L66.6035 43.588L66.6078 43.5937L66.6128 43.5987L66.6835 43.528ZM71.3555 42.76L71.3096 42.6711L71.3096 42.6711L71.3555 42.76ZM75.3875 40.2L75.4475 40.28L75.4491 40.2788L75.3875 40.2ZM79.2275 36.936L79.1607 36.8615L79.1595 36.8627L79.2275 36.936ZM82.3635 34.056L82.4324 34.1285L82.4342 34.1267L82.3635 34.056ZM83.1955 36.168L83.1248 36.0973L83.1248 36.0973L83.1955 36.168ZM79.9955 39.24L80.0629 39.3138L80.0629 39.3138L79.9955 39.24ZM77.1795 41.608L77.2383 41.6889L77.2401 41.6875L77.1795 41.608ZM72.5075 44.424L72.4628 44.3346L72.5075 44.424ZM78.5875 19.684C78.2402 19.684 77.9982 19.5973 77.8422 19.4413C77.6862 19.2853 77.5995 19.0433 77.5995 18.696H77.3995C77.3995 19.0741 77.4941 19.376 77.7008 19.5827C77.9075 19.7894 78.2094 19.884 78.5875 19.884V19.684ZM77.5995 18.696C77.5995 18.6085 77.6311 18.4734 77.7047 18.2842C77.7773 18.0975 77.8873 17.8668 78.0355 17.5914L77.8595 17.4966C77.7091 17.7759 77.595 18.0145 77.5183 18.2118C77.4425 18.4066 77.3995 18.5701 77.3995 18.696H77.5995ZM78.0369 17.5887C78.3339 16.9948 78.6734 16.4006 79.0556 15.8061L78.8874 15.6979C78.5016 16.2981 78.1584 16.8985 77.8581 17.4993L78.0369 17.5887ZM79.0556 15.8061C79.4395 15.2089 79.7332 14.8117 79.9382 14.6067L79.7968 14.4653C79.5751 14.687 79.2715 15.1005 78.8874 15.6979L79.0556 15.8061ZM79.942 14.6027C80.6677 13.7916 81.2125 13.2916 81.5801 13.0874L81.4829 12.9126C81.0825 13.135 80.5179 13.6591 79.793 14.4693L79.942 14.6027ZM81.5762 13.0894C81.9942 12.8805 82.3626 12.78 82.6835 12.78V12.58C82.3217 12.58 81.9221 12.6929 81.4868 12.9106L81.5762 13.0894ZM82.6835 12.78C83.1184 12.78 83.4259 12.8786 83.6244 13.0582C83.821 13.236 83.9275 13.5088 83.9275 13.896H84.1275C84.1275 13.4725 84.01 13.1373 83.7586 12.9098C83.5091 12.6841 83.1446 12.58 82.6835 12.58V12.78ZM83.9275 13.896C83.9275 14.1555 83.7579 14.494 83.3772 14.9171L83.5258 15.0509C83.9131 14.6206 84.1275 14.2338 84.1275 13.896H83.9275ZM83.3768 14.9176C83.0408 15.2956 82.6409 15.6535 82.1767 15.9911L82.2943 16.1529C82.7687 15.8078 83.1796 15.4404 83.5262 15.0504L83.3768 14.9176ZM82.1825 15.9872C81.8393 16.2017 81.5584 16.396 81.341 16.5699C81.1249 16.7428 80.9661 16.8998 80.8723 17.0405L81.0387 17.1515C81.1155 17.0362 81.2555 16.8945 81.466 16.7261C81.6752 16.5587 81.9491 16.3689 82.2885 16.1568L82.1825 15.9872ZM80.8739 17.0381L79.4659 19.0221L79.6291 19.1379L81.0371 17.1539L80.8739 17.0381ZM79.4505 19.0557C79.4136 19.2035 79.3192 19.3589 79.1568 19.5213L79.2982 19.6627C79.4771 19.4838 79.5961 19.2979 79.6445 19.1043L79.4505 19.0557ZM79.1568 19.5213C79.0566 19.6215 78.876 19.684 78.5875 19.684V19.884C78.8963 19.884 79.1424 19.8185 79.2982 19.6627L79.1568 19.5213ZM67.7075 45.604C66.5223 45.604 65.6762 45.3706 65.1481 44.9237L65.0189 45.0763C65.6001 45.5681 66.5033 45.804 67.7075 45.804V45.604ZM65.1511 44.9263C64.6663 44.4819 64.4155 43.8089 64.4155 42.888H64.2155C64.2155 43.8444 64.4767 44.5795 65.0159 45.0737L65.1511 44.9263ZM64.4155 42.888C64.4155 42.0095 64.6881 40.8065 65.2416 39.274L65.0534 39.206C64.4975 40.7455 64.2155 41.9745 64.2155 42.888H64.4155ZM65.2418 39.2731C65.7951 37.6984 66.4977 36.0164 67.3498 34.227L67.1692 34.141C66.3146 35.9356 65.6092 37.6243 65.0532 39.2069L65.2418 39.2731ZM67.3489 34.2287C68.2438 32.439 69.1812 30.7347 70.161 29.1158L69.9899 29.0122C69.0071 30.636 68.0672 32.345 67.1701 34.1393L67.3489 34.2287ZM70.161 29.1158C71.1404 27.4976 72.0758 26.1801 72.9668 25.1618L72.8162 25.0301C71.9152 26.0599 70.9732 27.3877 69.9899 29.0122L70.161 29.1158ZM72.9666 25.1621C73.4333 24.6317 73.8489 24.2379 74.2136 23.9774C74.5801 23.7156 74.8847 23.596 75.1315 23.596V23.396C74.8237 23.396 74.4776 23.543 74.0974 23.8146C73.7154 24.0875 73.2884 24.4936 72.8164 25.0299L72.9666 25.1621ZM75.1315 23.596C75.5028 23.596 75.7626 23.6788 75.9291 23.8267C76.0933 23.9727 76.1835 24.1973 76.1835 24.52H76.3835C76.3835 24.16 76.2817 23.8726 76.0619 23.6773C75.8444 23.4839 75.5282 23.396 75.1315 23.396V23.596ZM76.1835 24.52C76.1835 24.7109 76.1007 25.0037 75.9202 25.4072C75.7413 25.8072 75.4716 26.3046 75.11 26.9001L75.281 27.0039C75.6447 26.4048 75.9191 25.8995 76.1028 25.4888C76.285 25.0816 76.3835 24.7558 76.3835 24.52H76.1835ZM75.11 26.9001C74.3855 28.0934 73.5969 29.3296 72.7443 30.6085L72.9107 30.7195C73.7647 29.4384 74.5548 28.1999 75.281 27.0039L75.11 26.9001ZM72.7466 30.6052C72.4055 31.0743 71.9363 31.7141 71.339 32.5247L71.5 32.6433C72.0974 31.8326 72.5669 31.1924 72.9084 30.7228L72.7466 30.6052ZM71.339 32.5247C70.742 33.3349 70.1663 34.1024 69.6121 34.8273L69.7709 34.9487C70.326 34.2229 70.9024 33.4544 71.5 32.6433L71.339 32.5247ZM69.6139 34.8249C69.0596 35.5071 68.694 35.98 68.5203 36.2405L68.6867 36.3515C68.8543 36.1 69.2141 35.6342 69.7691 34.9511L69.6139 34.8249ZM68.5203 36.2405C68.0857 36.8924 67.6343 37.9486 67.1644 39.4012L67.3546 39.4628C67.8233 38.0141 68.268 36.9796 68.6867 36.3515L68.5203 36.2405ZM67.1652 39.3987C66.6524 40.8516 66.3915 41.9742 66.3915 42.76H66.5915C66.5915 42.0098 66.8426 40.9138 67.3538 39.4653L67.1652 39.3987ZM66.3915 42.76C66.3915 43.1109 66.4568 43.3924 66.6035 43.588L66.7635 43.468C66.6542 43.3223 66.5915 43.0917 66.5915 42.76H66.3915ZM66.6128 43.5987C66.7166 43.7025 66.8702 43.7725 67.0606 43.8173C67.2521 43.8624 67.4898 43.884 67.7715 43.884V43.684C67.4985 43.684 67.2775 43.6629 67.1064 43.6227C66.9341 43.5821 66.8211 43.5242 66.7542 43.4573L66.6128 43.5987ZM67.7715 43.884C68.8592 43.884 70.0698 43.5361 71.4014 42.8489L71.3096 42.6711C69.9959 43.3492 68.8172 43.684 67.7715 43.684V43.884ZM71.4014 42.8489C72.7296 42.1633 74.0783 41.3069 75.4475 40.28L75.3275 40.12C73.966 41.1411 72.6267 41.9914 71.3096 42.6711L71.4014 42.8489ZM75.4491 40.2788C76.8165 39.2105 78.0987 38.1207 79.2955 37.0093L79.1595 36.8627C77.967 37.97 76.6892 39.0562 75.3259 40.1212L75.4491 40.2788ZM79.2943 37.0105C80.532 35.9007 81.5781 34.94 82.4324 34.1285L82.2946 33.9835C81.4422 34.7933 80.3976 35.7526 79.1607 36.8615L79.2943 37.0105ZM82.4342 34.1267C82.5795 33.9814 82.8056 33.9 83.1315 33.9V33.7C82.7748 33.7 82.4888 33.7893 82.2928 33.9853L82.4342 34.1267ZM83.1315 33.9C83.4408 33.9 83.6543 33.9623 83.789 34.0701C83.9195 34.1745 83.9915 34.3341 83.9915 34.568H84.1915C84.1915 34.2899 84.1035 34.0655 83.914 33.9139C83.7287 33.7657 83.4622 33.7 83.1315 33.7V33.9ZM83.9915 34.568C83.9915 34.9963 83.7171 35.505 83.1248 36.0973L83.2662 36.2387C83.8686 35.6363 84.1915 35.0784 84.1915 34.568H83.9915ZM83.1248 36.0973C81.9736 37.2484 80.9081 38.2714 79.9281 39.1662L80.0629 39.3138C81.0456 38.4166 82.1134 37.3916 83.2662 36.2387L83.1248 36.0973ZM79.9281 39.1662C78.9486 40.0605 78.0122 40.8479 77.1189 41.5285L77.2401 41.6875C78.1388 41.0028 79.0798 40.2115 80.0629 39.3138L79.9281 39.1662ZM77.1207 41.5271C75.7175 42.5476 74.165 43.4835 72.4628 44.3346L72.5522 44.5134C74.2634 43.6579 75.8255 42.7164 77.2383 41.6889L77.1207 41.5271ZM72.4628 44.3346C70.7663 45.1828 69.1816 45.604 67.7075 45.604V45.804C69.2201 45.804 70.8354 45.3718 72.5522 44.5134L72.4628 44.3346ZM99.3965 28.68L99.3137 28.624L99.3125 28.6258L99.3965 28.68ZM103.812 22.152L103.73 22.0949L103.73 22.096L103.812 22.152ZM107.46 16.904L107.543 16.9611L107.544 16.9588L107.46 16.904ZM109.38 13.704L109.469 13.7504L109.47 13.7487L109.38 13.704ZM110.212 11.4L110.114 11.3848L110.114 11.3859L110.212 11.4ZM110.469 9.736L110.372 9.70753L110.37 9.72079L110.469 9.736ZM109.764 16.776L109.678 16.7259L109.677 16.7274L109.764 16.776ZM108.549 18.696L108.465 18.6405L108.463 18.6434L108.549 18.696ZM105.86 22.792L105.943 22.8488L105.943 22.8479L105.86 22.792ZM100.74 30.28L100.822 30.3381L100.823 30.3362L100.74 30.28ZM99.9725 31.432L99.8879 31.3782L99.8847 31.3841L99.9725 31.432ZM99.0765 33.032L98.9892 32.9821L98.9851 32.9914L99.0765 33.032ZM98.6285 34.184L98.7234 34.2156L98.7234 34.2156L98.6285 34.184ZM98.2445 35.272L98.1499 35.2365L98.1469 35.2503L98.2445 35.272ZM97.1565 36.324C96.8306 36.324 96.6045 36.2426 96.4592 36.0973C96.3139 35.952 96.2325 35.7259 96.2325 35.4H96.0325C96.0325 35.7567 96.1218 36.0427 96.3178 36.2387C96.5138 36.4347 96.7998 36.524 97.1565 36.524V36.324ZM96.2325 35.4C96.2325 34.8702 96.4948 34.051 97.0384 32.9317C97.58 31.8168 98.3936 30.418 99.4805 28.7342L99.3125 28.6258C98.2234 30.3127 97.405 31.7192 96.8585 32.8443C96.3142 33.965 96.0325 34.8205 96.0325 35.4H96.2325ZM99.4793 28.736L103.895 22.208L103.73 22.096L99.3137 28.624L99.4793 28.736ZM103.895 22.2091L107.543 16.9611L107.378 16.8469L103.73 22.0949L103.895 22.2091ZM107.544 16.9588C108.356 15.7199 108.998 14.6503 109.469 13.7504L109.292 13.6576C108.825 14.5497 108.186 15.6135 107.377 16.8492L107.544 16.9588ZM109.47 13.7487C109.941 12.8064 110.224 12.0272 110.311 11.4141L110.114 11.3859C110.03 11.9675 109.759 12.7242 109.291 13.6593L109.47 13.7487ZM110.311 11.4152L110.567 9.75121L110.37 9.72079L110.114 11.3848L110.311 11.4152ZM110.564 9.76422C110.669 9.4095 110.802 9.15403 110.957 8.98854C111.11 8.8259 111.287 8.748 111.493 8.748V8.548C111.228 8.548 111 8.65143 110.812 8.85146C110.626 9.04863 110.482 9.33717 110.373 9.70778L110.564 9.76422ZM111.493 8.748C111.838 8.748 112.08 8.83924 112.236 9.00466C112.393 9.17115 112.48 9.43003 112.48 9.8H112.68C112.68 9.40196 112.587 9.08485 112.381 8.86734C112.175 8.64876 111.872 8.548 111.493 8.548V8.748ZM112.48 9.8C112.48 10.4848 112.251 11.404 111.784 12.5626C111.317 13.7193 110.615 15.1069 109.678 16.7259L109.851 16.8261C110.791 15.2025 111.498 13.806 111.969 12.6374C112.44 11.4707 112.68 10.5232 112.68 9.8H112.48ZM109.677 16.7274C109.466 17.1075 109.063 17.7445 108.465 18.6405L108.632 18.7515C109.229 17.8555 109.636 17.2125 109.852 16.8246L109.677 16.7274ZM108.463 18.6434C107.91 19.5376 107.015 20.9016 105.778 22.7361L105.943 22.8479C107.181 21.0131 108.078 19.6464 108.634 18.7486L108.463 18.6434ZM105.778 22.7352C104.541 24.5275 102.834 27.0237 100.658 30.2238L100.823 30.3362C102.999 27.1363 104.706 24.6405 105.943 22.8488L105.778 22.7352ZM100.659 30.2219C100.444 30.5225 100.187 30.9082 99.8881 31.3783L100.057 31.4857C100.355 31.0172 100.61 30.6348 100.822 30.3381L100.659 30.2219ZM99.8847 31.3841C99.6291 31.8527 99.3308 32.3855 98.9897 32.9824L99.1633 33.0816C99.5049 32.4839 99.8039 31.9499 100.06 31.4799L99.8847 31.3841ZM98.9851 32.9914C98.8132 33.3782 98.6627 33.7652 98.5336 34.1524L98.7234 34.2156C98.8503 33.8348 98.9985 33.4538 99.1679 33.0726L98.9851 32.9914ZM98.5336 34.1524C98.406 34.5353 98.2784 34.8968 98.1509 35.2369L98.3381 35.3071C98.4666 34.9645 98.595 34.6007 98.7234 34.2156L98.5336 34.1524ZM98.1469 35.2503C98.0637 35.6247 97.9361 35.8934 97.7718 36.0673C97.6104 36.2382 97.4079 36.324 97.1565 36.324V36.524C97.4598 36.524 97.7159 36.4178 97.9172 36.2047C98.1156 35.9946 98.2547 35.6873 98.3421 35.2937L98.1469 35.2503ZM94.9165 45.412C94.3763 45.412 93.9897 45.2821 93.7378 45.0399C93.4867 44.7985 93.3525 44.4289 93.3525 43.912H93.1525C93.1525 44.4618 93.2956 44.8922 93.5992 45.1841C93.902 45.4752 94.3474 45.612 94.9165 45.612V45.412ZM93.3525 43.912C93.3525 43.3496 93.4828 42.9464 93.7259 42.6839C93.9676 42.4229 94.3366 42.284 94.8525 42.284V42.084C94.3017 42.084 93.8708 42.2331 93.5791 42.5481C93.2888 42.8616 93.1525 43.3224 93.1525 43.912H93.3525ZM94.8525 42.284C95.3927 42.284 95.7793 42.4139 96.0312 42.6561C96.2823 42.8975 96.4165 43.2671 96.4165 43.784H96.6165C96.6165 43.2342 96.4734 42.8038 96.1698 42.5119C95.867 42.2208 95.4216 42.084 94.8525 42.084V42.284ZM96.4165 43.784C96.4165 44.3464 96.2862 44.7496 96.0431 45.0121C95.8014 45.2731 95.4324 45.412 94.9165 45.412V45.612C95.4673 45.612 95.8982 45.4629 96.1899 45.1479C96.4802 44.8344 96.6165 44.3736 96.6165 43.784H96.4165Z" fill="white" mask="url(#path-1-outside-1_1_3)"/>
</svg>
